<svg width="34" height="34" viewBox="0 0 34 34" fill="none" xmlns="http://www.w3.org/2000/svg">
  <path
    d="M17 0.333344C26.2 0.333344 33.6667 7.80001 33.6667 17C33.6667 26.2 26.2 33.6667 17 33.6667C7.8 33.6667 0.333336 26.2 0.333336 17C0.333336 7.80001 7.8 0.333344 17 0.333344ZM7.03834 22.6933C9.485 26.3433 13.1583 28.6667 17.2667 28.6667C21.3733 28.6667 25.0483 26.345 27.4933 22.6933C24.7196 20.101 21.0632 18.6614 17.2667 18.6667C13.4695 18.6609 9.81252 20.1006 7.03834 22.6933ZM17 15.3333C18.3261 15.3333 19.5979 14.8066 20.5355 13.8689C21.4732 12.9312 22 11.6594 22 10.3333C22 9.00726 21.4732 7.73549 20.5355 6.79781C19.5979 5.86013 18.3261 5.33334 17 5.33334C15.6739 5.33334 14.4022 5.86013 13.4645 6.79781C12.5268 7.73549 12 9.00726 12 10.3333C12 11.6594 12.5268 12.9312 13.4645 13.8689C14.4022 14.8066 15.6739 15.3333 17 15.3333Z"
    fill="white" />
</svg>