<svg width="30" height="34" viewBox="0 0 30 34" fill="none" xmlns="http://www.w3.org/2000/svg">
  <path
    d="M1.66667 0.333344H28.3333C28.7754 0.333344 29.1993 0.508938 29.5118 0.821499C29.8244 1.13406 30 1.55798 30 2.00001V32C30 32.442 29.8244 32.866 29.5118 33.1785C29.1993 33.4911 28.7754 33.6667 28.3333 33.6667H1.66667C1.22464 33.6667 0.800716 33.4911 0.488155 33.1785C0.175595 32.866 0 32.442 0 32V2.00001C0 1.55798 0.175595 1.13406 0.488155 0.821499C0.800716 0.508938 1.22464 0.333344 1.66667 0.333344ZM3.33333 3.66668V30.3333H26.6667V3.66668H3.33333ZM6.66667 7.00001H23.3333V13.6667H6.66667V7.00001ZM6.66667 17H10V20.3333H6.66667V17ZM6.66667 23.6667H10V27H6.66667V23.6667ZM13.3333 17H16.6667V20.3333H13.3333V17ZM13.3333 23.6667H16.6667V27H13.3333V23.6667ZM20 17H23.3333V27H20V17Z"
    fill="white" />
</svg>