<svg width="34" height="34" viewBox="0 0 34 34" fill="none" xmlns="http://www.w3.org/2000/svg">
  <path
    d="M17 0.333344C26.205 0.333344 33.6667 7.79501 33.6667 17C33.6667 26.205 26.205 33.6667 17 33.6667C7.795 33.6667 0.333336 26.205 0.333336 17C0.333336 7.79501 7.795 0.333344 17 0.333344ZM17 3.66668C9.63667 3.66668 3.66667 9.63668 3.66667 17C3.66667 24.3633 9.63667 30.3333 17 30.3333C24.3633 30.3333 30.3333 24.3633 30.3333 17C30.3333 9.63668 24.3633 3.66668 17 3.66668ZM23.3883 9.22834C23.7833 8.95168 24.32 8.99834 24.66 9.34001C25 9.68001 25.0433 10.2167 24.765 10.6067C21.1317 15.6833 19.1317 18.4033 18.7683 18.7683C17.7917 19.7433 16.2083 19.7433 15.2317 18.7683C14.2567 17.7917 14.2567 16.2083 15.2317 15.2317C15.855 14.61 18.5733 12.6083 23.3883 9.22834ZM26.1667 15.3333C27.0867 15.3333 27.8333 16.08 27.8333 17C27.8333 17.92 27.0867 18.6667 26.1667 18.6667C25.2467 18.6667 24.5 17.92 24.5 17C24.5 16.08 25.2467 15.3333 26.1667 15.3333ZM7.83334 15.3333C8.75334 15.3333 9.5 16.08 9.5 17C9.5 17.92 8.75334 18.6667 7.83334 18.6667C6.91334 18.6667 6.16667 17.92 6.16667 17C6.16667 16.08 6.91334 15.3333 7.83334 15.3333ZM11.6967 9.34001C12.3467 9.99001 12.3467 11.045 11.6967 11.6967C11.0467 12.3467 9.99 12.3467 9.34 11.6967C8.69 11.0467 8.69 9.99001 9.34 9.34001C9.99 8.69001 11.045 8.69001 11.6967 9.34001ZM17 6.16668C17.92 6.16668 18.6667 6.91334 18.6667 7.83334C18.6667 8.75334 17.92 9.50001 17 9.50001C16.08 9.50001 15.3333 8.75334 15.3333 7.83334C15.3333 6.91334 16.08 6.16668 17 6.16668Z"
    fill="white" />
</svg>