<svg width="34" height="30" viewBox="0 0 34 30" fill="none" xmlns="http://www.w3.org/2000/svg">
  <path
    d="M3.66667 3.33333V26.6667H30.3333V3.33333H3.66667ZM2 0H32C32.442 0 32.866 0.175595 33.1785 0.488155C33.4911 0.800716 33.6667 1.22464 33.6667 1.66667V28.3333C33.6667 28.7754 33.4911 29.1993 33.1785 29.5118C32.866 29.8244 32.442 30 32 30H2C1.55798 30 1.13405 29.8244 0.821491 29.5118C0.508931 29.1993 0.333336 28.7754 0.333336 28.3333V1.66667C0.333336 1.22464 0.508931 0.800716 0.821491 0.488155C1.13405 0.175595 1.55798 0 2 0ZM22 6.66667L27.8333 11.6667L22 16.6667V13.3333H15.3333V10H22V6.66667ZM12 23.3333L6.16667 18.3333L12 13.3333V16.6667H18.6667V20H12V23.3333Z"
    fill="white" />
</svg>