<svg width="18" height="16" viewBox="0 0 18 16" fill="none" xmlns="http://www.w3.org/2000/svg">
  <path
    d="M1.49996 13.8333V1.33333C1.49996 1.11232 1.58776 0.900358 1.74404 0.744078C1.90032 0.587797 2.11228 0.5 2.33329 0.5H9.83329C10.0543 0.5 10.2663 0.587797 10.4225 0.744078C10.5788 0.900358 10.6666 1.11232 10.6666 1.33333V8H12.3333C12.7753 8 13.1992 8.17559 13.5118 8.48816C13.8244 8.80072 14 9.22464 14 9.66667V13C14 13.221 14.0878 13.433 14.244 13.5893C14.4003 13.7455 14.6123 13.8333 14.8333 13.8333C15.0543 13.8333 15.2663 13.7455 15.4225 13.5893C15.5788 13.433 15.6666 13.221 15.6666 13V7.16667H14C13.7789 7.16667 13.567 7.07887 13.4107 6.92259C13.2544 6.76631 13.1666 6.55435 13.1666 6.33333V3.345L11.7858 1.96417L12.9641 0.785833L17.0891 4.91083C17.1666 4.98812 17.2281 5.07995 17.27 5.18106C17.3119 5.28216 17.3334 5.39055 17.3333 5.5V13C17.3333 13.663 17.0699 14.2989 16.6011 14.7678C16.1322 15.2366 15.4963 15.5 14.8333 15.5C14.1703 15.5 13.5344 15.2366 13.0655 14.7678C12.5967 14.2989 12.3333 13.663 12.3333 13V9.66667H10.6666V13.8333H11.5V15.5H0.666626V13.8333H1.49996ZM3.16663 2.16667V7.16667H8.99996V2.16667H3.16663Z"
    fill="white" />
</svg>