<svg width="10" height="16" viewBox="0 0 10 16" fill="none" xmlns="http://www.w3.org/2000/svg">
<path d="M3.50882 12.9527H6.39317V16H3.50882V12.9527ZM6.39317 10.4463V11.4291H3.50882V9.1436C3.50882 8.7395 3.66076 8.35196 3.93122 8.06622C4.20168 7.78048 4.5685 7.61995 4.95099 7.61995C5.36069 7.61993 5.76195 7.49699 6.10809 7.26544C6.45423 7.0339 6.73102 6.70327 6.90626 6.31203C7.08149 5.92079 7.14796 5.48501 7.09794 5.05542C7.04791 4.62582 6.88345 4.22007 6.62368 3.88536C6.36391 3.55066 6.01952 3.30077 5.63058 3.16477C5.24164 3.02877 4.82414 3.01225 4.42665 3.11713C4.02917 3.22202 3.66806 3.44399 3.38532 3.75723C3.10258 4.07047 2.90985 4.46209 2.82955 4.88653L0 4.28774C0.175414 3.36149 0.58049 2.50107 1.17382 1.79443C1.76714 1.08778 2.52744 0.560268 3.37699 0.265805C4.22653 -0.0286571 5.13485 -0.0795041 6.00909 0.118461C6.88334 0.316427 7.69214 0.756105 8.35283 1.39255C9.01352 2.02899 9.50239 2.83937 9.76947 3.74085C10.0366 4.64232 10.0723 5.60256 9.87295 6.5234C9.67364 7.44423 9.24645 8.29264 8.63507 8.98188C8.02368 9.67113 7.25002 10.1765 6.39317 10.4463Z" fill="#262837"/>
</svg>
