<svg width="21" height="14" viewBox="0 0 21 14" fill="none" xmlns="http://www.w3.org/2000/svg">
<path fill-rule="evenodd" clip-rule="evenodd" d="M9.91197 0.000262983C9.91199 0.00243399 9.91966 0.0118079 9.92901 0.021095C9.94903 0.040991 10.022 0.13308 10.0601 0.186506C10.2137 0.402068 10.3019 0.630564 10.3016 0.811949C10.3014 0.881353 10.2863 0.958284 10.2606 1.01998C10.2405 1.06823 10.1963 1.13714 10.1643 1.17013L10.1518 1.183L10.1665 1.19011C10.1746 1.19403 10.2042 1.207 10.2324 1.21893C10.3752 1.27933 10.4771 1.32474 10.6881 1.42196L10.8401 1.49203V1.67562C10.8401 1.77659 10.8393 1.85921 10.8383 1.85921C10.8373 1.85921 10.7802 1.8329 10.7114 1.80073C10.5428 1.72192 10.448 1.67938 10.2324 1.58582C10.0674 1.51418 10.066 1.51359 9.99839 1.48507C9.92083 1.45235 9.90408 1.44531 9.87987 1.43528C9.83237 1.41561 9.76971 1.3895 9.74782 1.38025C9.73512 1.37489 9.70974 1.36457 9.6914 1.35731C9.67307 1.35006 9.61999 1.32849 9.57345 1.30938C9.50106 1.27965 9.31012 1.20408 9.25662 1.18399C9.24736 1.18051 9.23891 1.1785 9.23784 1.17952C9.23676 1.18054 9.25203 1.19983 9.27176 1.22238C9.47699 1.45691 9.65008 1.73164 9.74591 1.975C9.78916 2.08482 9.80907 2.15357 9.83114 2.26929C9.84101 2.32097 9.84265 2.34652 9.84267 2.4478C9.84269 2.55299 9.84134 2.57237 9.83046 2.62389C9.79562 2.78886 9.72894 2.91084 9.59405 3.05639L9.57327 3.07881L9.61055 3.08895C9.63104 3.09452 9.65474 3.10108 9.6632 3.10351C9.70971 3.11688 9.79051 3.1397 9.86064 3.15929C10.1394 3.23713 10.531 3.371 10.803 3.48136L10.8401 3.49644V3.66409V3.83173L10.7517 3.79532C10.5122 3.69674 10.2689 3.60969 9.98372 3.52056C9.74638 3.44639 9.40176 3.35263 9.17601 3.30083C8.9489 3.24872 8.82942 3.22334 8.82606 3.2265C8.82464 3.22783 8.82934 3.23832 8.83649 3.24981C8.85072 3.27265 8.94985 3.45847 8.96833 3.49693C8.99545 3.5534 9.0555 3.68304 9.0555 3.68512C9.0555 3.68637 9.06119 3.6991 9.06814 3.7134C9.0751 3.7277 9.09594 3.7759 9.11447 3.82051C9.24574 4.13667 9.34873 4.46484 9.41422 4.7756C9.41701 4.78886 9.42165 4.81057 9.42452 4.82384C9.43321 4.86395 9.45609 5.00014 9.47114 5.10125C9.50055 5.29888 9.51407 5.6173 9.50218 5.83215C9.49654 5.9341 9.48167 6.08367 9.4709 6.14695C9.46807 6.16353 9.46328 6.19175 9.46025 6.20967C9.37024 6.74121 9.13682 7.23004 8.77663 7.64132C8.69917 7.72978 8.67189 7.75811 8.57088 7.85504C8.52857 7.89564 8.49306 7.93127 8.49197 7.93422C8.49052 7.93815 8.80413 7.93866 9.66506 7.93613L10.8401 7.93269V8.07526V8.21785H9.18371H7.52728V7.89461V7.57137H7.87541H8.22355L8.25362 7.54106C8.33552 7.45852 8.45427 7.31429 8.52854 7.20712C8.85894 6.73037 9.01319 6.18762 8.99677 5.55957C8.99493 5.48925 8.99114 5.40472 8.98835 5.37171L8.98327 5.31169L8.95484 5.279C8.86211 5.17237 8.64968 5.00751 8.43228 4.87346C8.18673 4.72206 7.97922 4.61154 7.67728 4.47137L7.52728 4.40172V4.23286C7.52728 4.13507 7.52924 4.06399 7.53193 4.06399C7.5362 4.06399 7.5581 4.07287 7.62728 4.10263C7.67656 4.12384 7.98146 4.26636 8.01959 4.28602C8.04075 4.29692 8.08229 4.31798 8.1119 4.33282C8.23891 4.39644 8.39385 4.48051 8.48328 4.53433C8.49949 4.54409 8.5141 4.55081 8.51573 4.54927C8.5188 4.54638 8.52172 4.53915 8.55776 4.44512C8.595 4.34797 8.63731 4.20522 8.66002 4.10017C8.6898 3.96234 8.70323 3.83606 8.70337 3.69251C8.70349 3.57586 8.69837 3.51257 8.68038 3.40786C8.64224 3.18596 8.54274 2.99983 8.37639 2.83922C8.30696 2.77219 8.24911 2.7283 8.13073 2.65284C8.08078 2.62099 8.00822 2.57458 7.9695 2.54968C7.87117 2.48649 7.49996 2.24903 7.4042 2.18806C7.36048 2.16023 7.30395 2.12406 7.27856 2.10767C7.25318 2.09128 7.17125 2.03879 7.09651 1.99103C7.02176 1.94325 6.8983 1.8642 6.82214 1.81535C6.74599 1.76651 6.65022 1.70521 6.60932 1.67914C6.51439 1.61863 6.39422 1.54176 6.2587 1.45487C6.196 1.41467 6.15281 1.38978 6.15442 1.39477C6.15594 1.39947 6.1702 1.43689 6.18612 1.47796C6.34435 1.88613 6.4252 2.38114 6.39693 2.76856C6.38903 2.87677 6.37495 2.9927 6.36293 3.04844C6.36007 3.06171 6.3552 3.0845 6.35211 3.0991C6.32337 3.23474 6.26458 3.40806 6.20788 3.52432L6.18991 3.56117L6.25474 3.583C6.2904 3.59501 6.35304 3.61605 6.39394 3.62976C6.43483 3.64347 6.48907 3.66196 6.51445 3.67084C6.53984 3.67972 6.60099 3.70106 6.65035 3.71827C6.69971 3.73548 6.7724 3.76146 6.81189 3.776C7.03285 3.85738 7.02659 3.85497 7.23112 3.93726L7.32215 3.97387V4.14195C7.32215 4.2344 7.32101 4.31004 7.31962 4.31004C7.31749 4.31004 7.27872 4.29415 7.19651 4.25959C7.07184 4.20719 6.66055 4.05139 6.51693 4.00216C6.50147 3.99686 6.45996 3.98242 6.42471 3.97007C6.22319 3.89951 5.91188 3.798 5.91188 3.80286C5.91188 3.80493 5.92237 3.82491 5.9352 3.84726C6.05844 4.06204 6.19792 4.38959 6.28532 4.66946C6.33933 4.8424 6.36586 4.94919 6.40938 5.16879C6.41853 5.21498 6.43882 5.36178 6.44505 5.4269C6.44835 5.46139 6.4532 5.51087 6.45582 5.53684C6.46215 5.59939 6.46196 5.89811 6.45555 5.96102C6.44247 6.08935 6.43817 6.12281 6.42407 6.20605C6.41575 6.25514 6.40699 6.30398 6.40461 6.3146C6.33336 6.63253 6.21712 6.89809 6.03328 7.16298C5.99591 7.21682 5.8857 7.35668 5.85966 7.3833C5.85313 7.38998 5.83393 7.41056 5.81701 7.42903C5.80009 7.4475 5.76112 7.48708 5.73042 7.51699L5.6746 7.57137H6.49838H7.32215V7.89485V8.21833L6.87471 8.21649C6.41337 8.21457 6.39975 8.21405 6.29906 8.19423C6.072 8.14955 5.87718 8.06193 5.69393 7.92208C5.66745 7.90187 5.5447 7.78764 5.52169 7.76179C5.40621 7.63206 5.30999 7.4636 5.26136 7.30602C5.2283 7.19887 5.21608 7.13323 5.20748 7.01656L5.20162 6.93695L4.64392 6.93573L4.08622 6.9345V5.67775V4.421H3.96314H3.84007V5.67777V6.93454H2.87595H1.91184V7.05033V7.16611H2.25287H2.5939V7.85119V8.53626H2.62633C2.68319 8.53626 2.7924 8.554 2.8648 8.575C3.00804 8.61655 3.1561 8.73826 3.23438 8.87881C3.28973 8.97818 3.30894 9.05652 3.3089 9.18274C3.30887 9.28565 3.30548 9.32797 3.26826 9.69172C3.25133 9.85704 3.24617 9.90434 3.23483 9.99807C3.23209 10.0206 3.22404 10.0923 3.21692 10.1573C3.2098 10.2223 3.20172 10.2913 3.19894 10.3107C3.19617 10.33 3.19391 10.3541 3.19391 10.3643V10.3827L3.31314 10.4193C3.42289 10.453 3.49171 10.4737 3.57853 10.499C3.63017 10.5141 3.83786 10.5704 3.88366 10.5818C4.20409 10.6611 4.36469 10.6962 4.63495 10.746C4.75734 10.7686 4.949 10.7995 5.0529 10.8135C5.07546 10.8165 5.10777 10.8208 5.12469 10.8231C5.29578 10.8462 5.48138 10.8652 5.68624 10.8806C5.94338 10.8999 6.00391 10.9012 6.54266 10.8989C6.85792 10.8976 7.08845 10.8946 7.12728 10.8914C7.16253 10.8885 7.22715 10.8837 7.27087 10.8809C7.31459 10.8781 7.37228 10.8737 7.39907 10.8713C7.42587 10.8689 7.47318 10.8646 7.5042 10.8618C7.60357 10.853 7.8056 10.8329 7.84267 10.8282C7.86241 10.8256 7.89818 10.8212 7.92216 10.8183C7.96872 10.8127 8.17614 10.7864 8.22729 10.7796C8.28634 10.7718 8.33557 10.7648 8.41703 10.7526C8.46216 10.7458 8.51178 10.7383 8.52729 10.736C8.5994 10.7251 8.62321 10.7214 8.71191 10.7074C8.76409 10.6992 8.83101 10.6882 8.86063 10.683C8.90807 10.6746 9.04105 10.652 9.11448 10.6397C9.12858 10.6374 9.17127 10.6298 9.20935 10.6228C9.24743 10.6159 9.29012 10.6083 9.30422 10.606C9.33558 10.6009 9.85947 10.5022 9.98372 10.4779C10.1443 10.4466 10.2929 10.4178 10.3427 10.4082C10.3695 10.4031 10.4306 10.3911 10.4786 10.3817C10.6513 10.3478 10.7427 10.3302 10.894 10.3018C10.9786 10.2859 11.0571 10.2708 11.0683 10.2683C11.0899 10.2634 11.2569 10.2327 11.4222 10.2033C11.4758 10.1937 11.53 10.1839 11.5427 10.1814C11.5554 10.1788 11.6108 10.1691 11.6658 10.1598C11.8013 10.1368 11.8232 10.133 11.853 10.1278C11.8671 10.1253 11.9121 10.118 11.953 10.1114C12.0268 10.0996 12.0591 10.0943 12.1158 10.0848C12.1799 10.0741 12.464 10.0315 12.5632 10.0177C12.621 10.0097 12.6845 10.0008 12.7043 9.99806C12.7714 9.98865 12.9784 9.96394 13.1068 9.95003C13.1572 9.94456 13.4372 9.91785 13.5094 9.91162C13.6697 9.89778 13.846 9.88596 14.0145 9.87777C14.0695 9.87509 14.1688 9.8702 14.235 9.86689C14.3927 9.85901 15.0963 9.85913 15.2607 9.86705C15.5522 9.88111 15.7599 9.89401 15.8915 9.90623C15.9183 9.90872 15.9666 9.91309 15.9989 9.91593C16.0312 9.91877 16.1074 9.92667 16.1681 9.93349C16.3523 9.95417 16.4005 9.96023 16.5479 9.98129C16.8726 10.0277 17.1647 10.082 17.4733 10.1533L17.6013 10.1829L17.6288 10.1544C17.6667 10.1152 17.765 9.99952 17.8027 9.94983C18.0577 9.61387 18.2299 9.2195 18.2831 8.84985C18.2999 8.73318 18.3021 8.70887 18.3068 8.58933C18.3122 8.45244 18.3183 8.41719 18.3507 8.33568C18.396 8.22154 18.467 8.11316 18.5829 7.98145C18.642 7.91417 18.8286 7.73787 18.9186 7.66422C19.3607 7.3024 20.0891 6.87017 20.8736 6.50418C20.9413 6.4726 20.9981 6.44525 20.9999 6.4434C21.0017 6.44155 20.9813 6.40421 20.9545 6.36043C20.8807 6.23952 20.8805 6.23918 20.8644 6.21184C20.8562 6.19778 20.8479 6.18692 20.8461 6.18772C20.8442 6.18851 20.7977 6.21322 20.7428 6.24262C20.4587 6.39452 20.1104 6.55681 19.8274 6.66911C19.7992 6.68031 19.7692 6.69242 19.7607 6.69602C19.7363 6.70644 19.4824 6.80167 19.4428 6.81528C19.423 6.82205 19.3746 6.83878 19.3351 6.85244C19.2478 6.88262 18.9811 6.96695 18.9069 6.98781C18.4049 7.12891 18.0216 7.20992 17.5171 7.28145C17.3832 7.30044 17.2146 7.31948 17.2146 7.31561C17.2146 7.31388 17.228 7.28876 17.2444 7.2598C17.2721 7.21108 17.2998 7.16142 17.38 7.01656C17.4149 6.95346 17.4567 6.87817 17.4978 6.80428C17.5133 6.77642 17.5404 6.72757 17.5581 6.69573C17.5758 6.66389 17.5989 6.62264 17.6094 6.60407C17.6346 6.55966 17.6617 6.51101 17.9338 6.02272C17.9508 5.9922 17.9756 5.9477 17.9889 5.92382C18.0023 5.89994 18.0265 5.85652 18.0428 5.82733C18.0753 5.76902 18.112 5.70347 18.1454 5.644C18.1573 5.62277 18.1815 5.57935 18.1992 5.54751C18.2397 5.47472 18.2716 5.41738 18.3363 5.30146C18.3644 5.25105 18.4031 5.18157 18.4222 5.14708C18.4413 5.11258 18.4644 5.07134 18.4735 5.05541C18.4827 5.03949 18.507 4.99607 18.5275 4.95893C18.548 4.92178 18.5734 4.87619 18.5838 4.85761C18.5942 4.83904 18.6184 4.79562 18.6376 4.76112C18.6567 4.72663 18.6799 4.68538 18.6889 4.66946C18.698 4.65354 18.7234 4.60795 18.7454 4.56814C18.7673 4.52834 18.7873 4.49372 18.7897 4.49119C18.8024 4.47789 18.7908 4.46966 18.6883 4.41918C18.6302 4.39053 18.5809 4.3689 18.5787 4.37113C18.5766 4.37335 18.5604 4.40122 18.5427 4.43306C18.5251 4.4649 18.5021 4.50615 18.4915 4.52472C18.481 4.5433 18.4562 4.5878 18.4363 4.62363C18.3762 4.73217 18.1843 5.07663 18.1581 5.12296C18.1446 5.14684 18.095 5.23585 18.0479 5.32076C18.0007 5.40567 17.9511 5.49468 17.9377 5.51856C17.9243 5.54244 17.8977 5.59021 17.8786 5.6247C17.8596 5.6592 17.8376 5.69827 17.8299 5.71154C17.8222 5.72481 17.7991 5.76606 17.7786 5.80321C17.758 5.84035 17.7177 5.91308 17.6889 5.96482C17.6601 6.01657 17.6197 6.0893 17.5992 6.12644C17.5788 6.16359 17.558 6.2005 17.5531 6.20846C17.5482 6.21642 17.5228 6.26201 17.4966 6.30977C17.4704 6.35754 17.4427 6.40747 17.4351 6.42074C17.4275 6.434 17.4067 6.47091 17.389 6.50275C17.3713 6.53459 17.3458 6.58018 17.3325 6.60407C17.3192 6.62795 17.2937 6.67354 17.276 6.70538C17.2583 6.73722 17.2381 6.77304 17.2312 6.78498C17.0807 7.04494 16.8304 7.23775 16.5299 7.32522C16.4635 7.34456 16.3767 7.35921 16.2799 7.3674L16.1838 7.37555V7.41562C16.1838 7.47894 16.1649 7.57338 16.1369 7.65097C16.1178 7.70365 16.071 7.79009 16.031 7.84636C15.9798 7.91853 15.8806 8.01361 15.8035 8.0645C15.709 8.12682 15.5779 8.18044 15.4709 8.20048C15.3855 8.21649 15.3433 8.21785 14.9313 8.21785H14.5171V7.94044V7.66303H15.1136H15.7101L15.6935 7.57499C15.6844 7.52656 15.6743 7.47283 15.6711 7.45558C15.6678 7.43833 15.6631 7.41445 15.6606 7.40251C15.6581 7.39057 15.6501 7.34715 15.6427 7.30602C15.6354 7.26489 15.6274 7.22148 15.6249 7.20953C15.6174 7.17299 15.6105 7.13704 15.5735 6.93936C15.5403 6.76194 15.5344 6.73085 15.5217 6.66678C15.5191 6.65352 15.5088 6.59924 15.4989 6.54617C15.4613 6.34524 15.4164 6.21118 15.3326 6.04925C15.282 5.9515 15.2641 5.92151 15.2131 5.84904C15.1027 5.69223 14.9719 5.55794 14.8171 5.44237C14.7514 5.39332 14.6295 5.31661 14.5663 5.28458L14.5171 5.25962V5.08646V4.9133L14.5312 4.91919C14.5747 4.93737 14.7141 5.00671 14.7761 5.04105C14.9046 5.11224 15.0329 5.20151 15.1423 5.29596C15.1689 5.31889 15.1932 5.33765 15.1964 5.33765C15.1995 5.33765 15.2174 5.3078 15.2361 5.27131C15.2952 5.15574 15.3371 5.04981 15.3633 4.94928C15.3857 4.86321 15.3879 4.85291 15.3967 4.79248C15.4325 4.54457 15.3841 4.28994 15.2732 4.14307C15.1919 4.03537 14.9426 3.87036 14.5774 3.68247L14.5172 3.6515L14.5172 3.47666L14.5171 3.30183L14.5671 3.32652C14.712 3.39808 14.8247 3.45641 14.9032 3.50035C14.9308 3.51582 14.9552 3.52847 14.9575 3.52847C14.9621 3.52847 14.9888 3.47499 15.0081 3.42716C15.0981 3.20412 15.1008 2.97731 15.0155 2.80963C14.9582 2.69716 14.7188 2.54444 14.2786 2.3396C14.1818 2.29453 14.03 2.22587 14.0272 2.22587C14.0264 2.22587 14.0042 2.2164 13.9778 2.20481C13.9515 2.19323 13.8791 2.1626 13.8171 2.13676C13.7132 2.09347 13.6745 2.07774 13.5222 2.0169C13.4926 2.00506 13.4676 1.996 13.4668 1.99675C13.4659 1.99751 13.4855 2.0228 13.5103 2.05295C13.6071 2.17034 13.6783 2.28234 13.7262 2.39256C13.7651 2.48207 13.7801 2.53413 13.792 2.62106C13.7991 2.67278 13.7994 2.68919 13.794 2.73241C13.7858 2.79845 13.7679 2.85568 13.7405 2.9044L13.7183 2.94368L13.7318 2.94958C13.7392 2.95283 13.7764 2.9685 13.8145 2.98441C13.8526 3.00033 13.9034 3.02205 13.9273 3.03268C13.9513 3.04332 13.9871 3.0591 14.0068 3.06776C14.0488 3.08614 14.1184 3.11735 14.2312 3.16825L14.312 3.20471V3.37868V3.55265L14.2235 3.51098C14.1357 3.46962 14.024 3.41854 13.9453 3.38377C13.8361 3.33552 13.8079 3.32317 13.7555 3.30081C13.7245 3.28754 13.6822 3.26929 13.6615 3.26026C13.6408 3.25122 13.6231 3.24383 13.6221 3.24383C13.6212 3.24383 13.6025 3.23604 13.5805 3.2265C13.5205 3.20044 13.2976 3.10869 13.2248 3.0801C13.1895 3.06626 13.1537 3.05204 13.1453 3.0485C13.1063 3.03218 13.0125 2.99807 13.0109 2.99961C13.0099 3.00056 13.0261 3.02061 13.047 3.04419C13.1535 3.16438 13.2603 3.31788 13.3387 3.46334C13.4496 3.66927 13.5017 3.84774 13.5017 4.02207C13.5017 4.17743 13.4601 4.30641 13.3715 4.42566C13.3588 4.44282 13.3488 4.45729 13.3494 4.45782C13.35 4.45835 13.4 4.4754 13.4607 4.49571C13.7561 4.59466 13.9809 4.67829 14.1863 4.76565C14.2061 4.77405 14.2424 4.78949 14.267 4.79997L14.3119 4.81902L14.3119 4.98908C14.3119 5.08262 14.3106 5.15914 14.3089 5.15914C14.3072 5.15914 14.2789 5.14697 14.2461 5.1321C14.1625 5.09431 13.9587 5.00904 13.8761 4.9773C13.838 4.96268 13.7999 4.94776 13.7914 4.94413C13.7593 4.93035 13.5966 4.8717 13.4709 4.8286C13.2586 4.75577 12.9063 4.6474 12.7491 4.60657L12.7067 4.59556L12.8365 4.71694C12.9795 4.85057 13 4.87091 13.0885 4.96616C13.3084 5.20275 13.4895 5.52199 13.6016 5.87075C13.6191 5.92503 13.6252 5.94555 13.65 6.03357C13.6588 6.06467 13.6879 6.19685 13.7018 6.26877C13.7521 6.52864 13.7653 6.8711 13.7371 7.18059C13.7317 7.23909 13.7058 7.44047 13.6967 7.49418C13.6915 7.52468 13.6727 7.62457 13.6678 7.64754L13.6645 7.66303H13.9882H14.312V7.94044V8.21785H12.6785H11.0451L11.0465 8.07673L11.0478 7.93562L12.1542 7.9344C12.7628 7.93373 13.2607 7.93227 13.2607 7.93116C13.2607 7.93004 13.2722 7.88608 13.2862 7.83347C13.3096 7.74586 13.3186 7.70887 13.34 7.61238C13.3494 7.56993 13.3705 7.45579 13.3784 7.40492C13.3817 7.3837 13.3865 7.3533 13.3891 7.33738C13.395 7.30103 13.4076 7.18396 13.4147 7.09857C13.4232 6.99774 13.4216 6.68759 13.4121 6.58477C13.4038 6.49478 13.3974 6.44143 13.389 6.39179C13.3863 6.37587 13.3804 6.34113 13.3759 6.3146C13.3381 6.09171 13.2504 5.82601 13.144 5.61254C13.0967 5.51771 13.0165 5.38746 12.954 5.30387C12.8367 5.1471 12.543 4.86456 12.2968 4.67179C12.1065 4.52268 11.9543 4.41907 11.6837 4.25445C11.5566 4.17711 11.3222 4.05307 11.1389 3.96615L11.0453 3.92179V3.75138C11.0453 3.65766 11.047 3.58191 11.0491 3.58304C11.0512 3.58419 11.1326 3.62228 11.2299 3.66769C11.4161 3.75458 11.4532 3.77275 11.5735 3.83569C11.6939 3.89874 11.8342 3.97776 11.9387 4.04141L11.968 4.05928L11.9757 4.04824C11.9822 4.03893 11.9983 4.0067 12.0634 3.87296C12.1108 3.77548 12.1712 3.58119 12.1937 3.4537C12.2371 3.20803 12.2127 2.94244 12.1286 2.7445C12.0812 2.63321 12.0294 2.56661 11.9219 2.47891C11.8772 2.44245 11.868 2.43549 11.8094 2.39421C11.6387 2.27403 11.3786 2.12489 11.094 1.98396L11.0478 1.96111L11.0465 1.77749C11.0457 1.6765 11.0466 1.59387 11.0485 1.59387C11.0602 1.59387 11.4528 1.80166 11.5738 1.87191C11.612 1.89411 11.6458 1.91228 11.6487 1.91228C11.6559 1.91228 11.712 1.78823 11.7347 1.72239C11.753 1.6693 11.7716 1.59988 11.7841 1.53839C11.794 1.48938 11.7927 1.34683 11.7818 1.29475C11.7379 1.08475 11.6153 0.907063 11.4376 0.795642C11.4033 0.774154 11.2283 0.680994 11.0837 0.607266C11.064 0.597198 11.0328 0.58091 11.0145 0.571078C10.9962 0.561241 10.9685 0.54671 10.953 0.538788C10.9225 0.523205 10.8249 0.472399 10.6786 0.395864C10.6278 0.36931 10.5736 0.341067 10.5581 0.333102C10.5426 0.325142 10.4803 0.292673 10.4196 0.260952C10.359 0.229236 10.2944 0.195552 10.276 0.186106C10.2577 0.17666 10.2004 0.146521 10.1488 0.119133C10.0971 0.0917491 10.0538 0.0693395 10.0525 0.0693395C10.0512 0.0693395 10.0416 0.0642932 10.031 0.0581227C9.99288 0.0357517 9.91192 -0.00358693 9.91197 0.000262983ZM0.00489703 9.67362C0.055077 9.73024 0.0831491 9.76099 0.173304 9.85809C0.278315 9.97121 0.362131 10.0584 0.444793 10.1404C0.502671 10.1978 0.75914 10.4391 0.814397 10.4881C1.38251 10.9919 1.9788 11.4045 2.61441 11.7336C2.87381 11.8679 3.11935 11.9803 3.38365 12.0859C3.4578 12.1155 3.6719 12.1959 3.72981 12.2159C3.84866 12.257 4.05094 12.3216 4.15802 12.3526C4.3194 12.3995 4.63709 12.4804 4.72385 12.4968C4.73559 12.499 4.7879 12.5097 4.84008 12.5206C4.89226 12.5315 4.94764 12.5427 4.96315 12.5457C4.97867 12.5486 5.00059 12.553 5.01187 12.5554C5.02315 12.5579 5.07854 12.5675 5.13495 12.5768C5.19136 12.5862 5.25021 12.5959 5.26572 12.5985C5.31807 12.6072 5.42175 12.622 5.48367 12.6297C5.51752 12.6339 5.56137 12.6393 5.58111 12.6418C5.74316 12.6624 5.89739 12.6766 6.10419 12.6901C6.62834 12.7245 7.34359 12.7087 7.83754 12.6519C7.8601 12.6493 7.90164 12.6446 7.92985 12.6415C7.97616 12.6364 8.22261 12.6043 8.29908 12.5934C8.35497 12.5855 8.55288 12.5534 8.59652 12.5452C8.61062 12.5426 8.65447 12.535 8.69396 12.5284C8.83284 12.5051 9.22613 12.4336 9.2632 12.4249C9.27448 12.4222 9.32871 12.4113 9.38371 12.4005C9.43871 12.3898 9.49756 12.3779 9.51448 12.3742C9.5314 12.3705 9.58794 12.3585 9.64012 12.3476C9.6923 12.3367 9.75346 12.3237 9.77602 12.3187C9.79858 12.3138 9.85282 12.3019 9.89653 12.2925C9.94025 12.283 10.0083 12.2679 10.0478 12.2589C10.0873 12.2499 10.1508 12.2355 10.1888 12.227C10.2719 12.2083 10.9043 12.0592 10.9735 12.042C11.0003 12.0353 11.0822 12.0154 11.1555 11.9978C11.2289 11.9802 11.3246 11.9571 11.3683 11.9465C12.114 11.7658 12.7691 11.6161 13.0786 11.5556C13.0927 11.5528 13.1123 11.5489 13.1222 11.5468C13.1526 11.5404 13.3236 11.5071 13.3453 11.5033C13.3566 11.5013 13.4027 11.4929 13.4479 11.4846C13.5963 11.4572 13.7537 11.4299 13.8376 11.4169C13.8545 11.4143 13.9099 11.4057 13.9607 11.3977C14.0114 11.3898 14.0784 11.3797 14.1094 11.3753C14.1404 11.371 14.1785 11.3656 14.194 11.3634C14.2095 11.3611 14.273 11.3527 14.335 11.3446C14.4419 11.3307 14.4722 11.3268 14.5632 11.3152C14.604 11.31 14.7962 11.2898 14.8863 11.2813C14.9159 11.2785 14.9609 11.2741 14.9863 11.2715C15.1003 11.26 15.329 11.2441 15.5402 11.233C15.9211 11.213 16.5362 11.213 16.8992 11.2329C17.1248 11.2453 17.3453 11.2631 17.5017 11.2815C17.5229 11.2839 17.5921 11.2916 17.6556 11.2985C17.9073 11.326 18.1948 11.3675 18.4735 11.4168C18.574 11.4345 18.8604 11.4894 18.9017 11.4987C18.9144 11.5016 18.9341 11.5059 18.9453 11.5083C19.1221 11.5456 19.2845 11.5816 19.4043 11.6103C19.5595 11.6474 19.6843 11.6777 19.7171 11.6864C19.7355 11.6912 19.7736 11.7009 19.8018 11.7079C19.8601 11.7224 19.8523 11.7204 19.9992 11.7594C20.1257 11.793 20.1445 11.7976 20.1466 11.7956C20.1483 11.794 20.1295 11.7835 19.9736 11.6989C19.7236 11.5632 19.4085 11.4098 19.1505 11.2982C19.0759 11.266 18.9523 11.2138 18.9504 11.2138C18.9492 11.2138 18.9358 11.2085 18.9207 11.202C18.7429 11.1255 18.3846 10.9965 18.1223 10.9146C17.9006 10.8454 17.8804 10.8396 17.6838 10.7869C17.3532 10.6984 17.0258 10.6263 16.7402 10.5792C16.7148 10.5751 16.6825 10.5697 16.6684 10.5673C16.5391 10.5456 16.2993 10.5122 16.1684 10.4977C16.1303 10.4935 16.0819 10.488 16.0607 10.4855C16.025 10.4813 16.0019 10.479 15.8633 10.4662C15.7604 10.4567 15.5757 10.4441 15.3658 10.4323C15.1839 10.422 14.7577 10.4172 14.4914 10.4223C14.349 10.4251 14.2175 10.4285 14.1991 10.4299C14.1808 10.4313 14.122 10.4346 14.0684 10.4371C13.8765 10.4462 13.6413 10.4621 13.4966 10.4757C13.336 10.4908 13.1111 10.5139 13.0299 10.5237C13.0087 10.5263 12.9718 10.5307 12.9478 10.5335C12.6767 10.5657 12.1347 10.6477 11.7991 10.7072C11.7695 10.7125 11.713 10.7224 11.6735 10.7293C11.634 10.7362 11.5798 10.7459 11.553 10.7508C11.4671 10.7668 11.3409 10.7897 11.3145 10.7942C11.3004 10.7966 11.2439 10.8071 11.1889 10.8175C11.1339 10.8279 11.0831 10.8375 11.076 10.8388C11.0488 10.8439 10.8776 10.877 10.7453 10.9027C10.4204 10.9658 10.362 10.9771 10.2735 10.9941C10.2396 11.0006 10.1381 11.0202 10.0478 11.0377C9.95756 11.0551 9.82487 11.0802 9.75294 11.0935C9.68102 11.1067 9.61294 11.1196 9.60166 11.1221C9.59038 11.1246 9.54884 11.1323 9.50935 11.1392C9.46986 11.1462 9.41563 11.1559 9.38884 11.1609C9.33295 11.1713 9.12297 11.2078 9.01704 11.2255C8.97755 11.2322 8.92447 11.2411 8.89909 11.2453C8.8737 11.2496 8.84024 11.255 8.82473 11.2573C8.79051 11.2624 8.61874 11.2887 8.57601 11.2954C8.51339 11.3052 8.47645 11.3105 8.38883 11.3224C8.33947 11.3291 8.28524 11.3366 8.26831 11.339C8.19701 11.3494 7.98666 11.3749 7.82728 11.3926C7.7073 11.4058 7.51756 11.423 7.35036 11.4357C6.7532 11.481 6.13477 11.481 5.57854 11.4356C5.41983 11.4227 5.29556 11.41 5.10675 11.3875C5.0537 11.3812 4.86925 11.3556 4.82854 11.3489C4.7473 11.3356 4.56843 11.3056 4.54007 11.3004C4.52879 11.2984 4.50687 11.2945 4.49135 11.2918C4.36379 11.2692 4.12709 11.219 3.94007 11.1748C3.45759 11.0609 2.92694 10.8989 2.43493 10.7153C2.25363 10.6477 1.9155 10.5166 1.84774 10.4877C1.83928 10.484 1.78159 10.4601 1.71953 10.4345C1.60204 10.3859 1.59752 10.384 1.48876 10.3369C1.4521 10.3211 1.41056 10.3031 1.39645 10.297C1.35206 10.2778 1.07698 10.155 0.991322 10.1162C0.946193 10.0957 0.883885 10.0675 0.852859 10.0536C0.785304 10.0232 0.479517 9.88336 0.293879 9.7979C0.0866517 9.70249 0.00422522 9.66518 0.000676473 9.66518C-0.00111842 9.66518 0.000784167 9.66898 0.00489703 9.67362ZM16.0274 11.9838C16.0217 11.9846 15.9513 11.9877 15.8709 11.9905C15.5822 12.0007 15.2121 12.0339 14.8991 12.0776C14.8822 12.08 14.8522 12.0841 14.8325 12.0867C14.7454 12.0982 14.4759 12.1417 14.3812 12.1595C14.1664 12.2 13.98 12.2375 13.8786 12.2606C13.7249 12.2958 13.6013 12.3247 13.5376 12.3405C13.439 12.3649 13.2487 12.414 13.2094 12.4252C13.1911 12.4304 13.138 12.4443 13.0914 12.4562C13.0449 12.4681 12.9987 12.48 12.9889 12.4827C12.6525 12.5743 12.5923 12.591 12.4581 12.6299C12.4243 12.6397 12.3827 12.6517 12.3658 12.6564C12.3489 12.6612 12.3085 12.6731 12.276 12.6829C12.2436 12.6927 12.2032 12.7046 12.1863 12.7094C12.1694 12.7141 12.1221 12.7282 12.0812 12.7407C12.0403 12.7531 11.9826 12.7706 11.953 12.7794C11.9233 12.7882 11.8887 12.7986 11.876 12.8026C11.8633 12.8066 11.801 12.8253 11.7376 12.8442C11.6741 12.8632 11.6095 12.8827 11.594 12.8876C11.5665 12.8963 11.4796 12.9223 11.2965 12.9764C11.1213 13.0282 11.0565 13.047 10.9222 13.0851C10.762 13.1306 10.7011 13.1472 10.5504 13.1867C10.5194 13.1948 10.4859 13.2037 10.476 13.2063C10.3879 13.2302 10.0662 13.3066 9.94782 13.3317C9.92102 13.3373 9.88871 13.3442 9.87602 13.3469C9.86333 13.3495 9.84371 13.3537 9.83243 13.3561C9.80747 13.3614 9.70737 13.3809 9.63756 13.394C9.5904 13.4029 9.41039 13.4334 9.36832 13.4396C9.35845 13.4411 9.33653 13.4446 9.31961 13.4474C9.27935 13.454 9.08695 13.4792 9.02473 13.486C8.99794 13.489 8.95986 13.4935 8.94011 13.496C8.92037 13.4986 8.86499 13.5029 8.81704 13.5057C8.76909 13.5084 8.70447 13.5128 8.67345 13.5155C8.64242 13.5181 8.53742 13.5215 8.44011 13.523C8.25496 13.526 8.00553 13.5177 7.82985 13.5028C7.78331 13.4988 7.71869 13.4935 7.68626 13.4909C7.65382 13.4883 7.61978 13.485 7.61062 13.4836C7.60145 13.4821 7.59395 13.4827 7.59395 13.4849C7.59395 13.489 7.67055 13.5312 7.80934 13.6037C7.88942 13.6455 8.14488 13.7517 8.23242 13.7796C8.61122 13.9002 8.9369 13.9612 9.37602 13.9939C9.48718 14.0021 9.99479 14.002 10.1222 13.9937C10.2391 13.9861 10.3762 13.9751 10.4376 13.9684C10.4629 13.9657 10.5033 13.9613 10.5273 13.9587C10.5846 13.9525 10.7523 13.9313 10.7914 13.9253C10.8083 13.9227 10.873 13.9129 10.935 13.9035C10.9971 13.8941 11.0582 13.8844 11.0709 13.882C11.0836 13.8796 11.1078 13.8753 11.1248 13.8725C11.1883 13.8619 11.346 13.8333 11.3658 13.8288C11.3771 13.8263 11.4371 13.8141 11.4991 13.8019C11.5612 13.7896 11.6846 13.7632 11.7735 13.7433C11.8623 13.7234 11.9431 13.7054 11.953 13.7034C11.9828 13.6972 12.1996 13.6442 12.3325 13.6108C12.4105 13.5911 12.8387 13.4787 12.8812 13.4668C12.9458 13.4486 13.0588 13.4174 13.1171 13.4017C13.1495 13.3929 13.2476 13.3659 13.335 13.3416C13.5995 13.2681 13.8256 13.2055 13.8581 13.1967C14.11 13.1288 14.4077 13.0496 14.4838 13.0303C14.5204 13.0209 14.5712 13.008 14.5966 13.0015C14.622 12.995 14.6843 12.9797 14.735 12.9674C14.7858 12.9552 14.8574 12.9378 14.894 12.9289C15.0917 12.8806 15.2656 12.8414 15.4402 12.8057C15.4924 12.7951 15.5443 12.7843 15.5556 12.7818C15.6067 12.7705 15.7837 12.7382 15.9274 12.7141C16.1131 12.6829 16.1183 12.6821 16.2145 12.6683C16.2611 12.6616 16.313 12.6541 16.3299 12.6517C16.4261 12.6379 16.6407 12.6109 16.712 12.6037C16.9073 12.584 16.9641 12.5786 17.0684 12.5701C17.1799 12.561 17.2378 12.5568 17.4069 12.5455C17.595 12.533 17.793 12.5285 18.153 12.5286C18.5722 12.5286 18.8206 12.5363 19.0292 12.5555C19.0585 12.5582 19.0836 12.5592 19.0851 12.5578C19.0874 12.5557 18.942 12.4875 18.9353 12.4875C18.9343 12.4875 18.9143 12.4791 18.8907 12.4688C18.6774 12.3757 18.3482 12.2643 18.1017 12.2018C17.8961 12.1496 17.7432 12.1172 17.5351 12.0818C17.5181 12.0789 17.4928 12.0746 17.4787 12.0722C17.444 12.0662 17.2946 12.0457 17.2376 12.0391C17.2122 12.0361 17.1742 12.0316 17.153 12.029C17.0176 12.0124 16.7821 11.9959 16.5402 11.9859C16.4305 11.9813 16.0536 11.9798 16.0274 11.9838Z" fill="black"/>
</svg>
