<svg width="16" height="18" viewBox="0 0 16 18" fill="none" xmlns="http://www.w3.org/2000/svg">
  <path
    d="M6.295 0.841764C7.41911 0.606042 8.57983 0.605475 9.70416 0.840098C9.77906 1.3345 9.96443 1.80567 10.2465 2.21858C10.5285 2.63149 10.9 2.97552 11.3333 3.2251C11.7663 3.47554 12.2502 3.62515 12.7489 3.66281C13.2477 3.70046 13.7485 3.62519 14.2142 3.4426C14.9794 4.29931 15.5591 5.30513 15.9167 6.39676C15.5261 6.70891 15.2109 7.10506 14.9945 7.55576C14.7781 8.00646 14.6661 8.50013 14.6667 9.0001C14.6667 10.0534 15.155 10.9926 15.9183 11.6034C15.5586 12.6942 14.9782 13.6992 14.2133 14.5559C13.7478 14.3735 13.2471 14.2983 12.7485 14.3359C12.2499 14.3736 11.7662 14.5231 11.3333 14.7734C10.9004 15.0229 10.5292 15.3667 10.2473 15.7793C9.96539 16.1919 9.78004 16.6627 9.705 17.1568C8.58101 17.393 7.42028 17.3942 6.29583 17.1601C6.22129 16.6652 6.03609 16.1936 5.75402 15.7802C5.47195 15.3669 5.10027 15.0224 4.66666 14.7726C4.23363 14.5223 3.74975 14.3728 3.25099 14.3353C2.75223 14.2978 2.25143 14.3732 1.78583 14.5559C1.0205 13.699 0.440836 12.6929 0.0833318 11.6009C0.473659 11.289 0.788714 10.8931 1.00511 10.4427C1.22151 9.99229 1.33369 9.49895 1.33333 8.99926C1.33374 8.49916 1.22142 8.00541 1.00472 7.55469C0.788022 7.10398 0.472518 6.70791 0.081665 6.39593C0.441389 5.3052 1.02176 4.30018 1.78667 3.44343C2.25221 3.6259 2.75289 3.7011 3.25149 3.66344C3.7501 3.62579 4.23381 3.47624 4.66666 3.22593C5.09962 2.97643 5.47082 2.63262 5.75271 2.22002C6.03461 1.80742 6.21996 1.33663 6.295 0.842598V0.841764ZM8 11.5001C8.66304 11.5001 9.29892 11.2367 9.76777 10.7679C10.2366 10.299 10.5 9.66314 10.5 9.0001C10.5 8.33706 10.2366 7.70117 9.76777 7.23233C9.29892 6.76349 8.66304 6.5001 8 6.5001C7.33696 6.5001 6.70107 6.76349 6.23223 7.23233C5.76339 7.70117 5.5 8.33706 5.5 9.0001C5.5 9.66314 5.76339 10.299 6.23223 10.7679C6.70107 11.2367 7.33696 11.5001 8 11.5001Z"
    fill="white" />
</svg>